<svg xmlns="http://www.w3.org/2000/svg" width="126" height="126" viewBox="0 0 126 126" fill="none">
  <g clip-path="url(#clip0_69_1083)">
    <path
      d="M63 122.603C95.9175 122.603 122.602 95.9176 122.602 63.0001C122.602 30.0826 95.9175 3.39771 63 3.39771C30.0825 3.39771 3.39758 30.0826 3.39758 63.0001C3.39758 95.9176 30.0825 122.603 63 122.603Z"
      stroke="#07004D" stroke-width="8" stroke-miterlimit="10" />
    <path
      d="M51.2188 35.3522C56.4072 35.3522 60.6132 31.1462 60.6132 25.9578C60.6132 20.7695 56.4072 16.5635 51.2188 16.5635C46.0305 16.5635 41.8245 20.7695 41.8245 25.9578C41.8245 31.1462 46.0305 35.3522 51.2188 35.3522Z"
      fill="#07004D" />
    <path
      d="M58.5576 105.759C51.5164 104.297 45.132 100.61 40.3474 95.2414C35.5629 89.8728 32.6318 83.1078 31.9871 75.9455C31.3425 68.7832 33.0185 61.6035 36.7676 55.4669C40.5168 49.3303 46.1401 44.5622 52.8071 41.8669L55.3553 48.1695C49.5898 50.5035 44.8191 54.7757 41.8654 60.2498C38.9118 65.7239 37.9603 72.0568 39.1749 78.1571C40.3896 84.2575 43.6942 89.743 48.5193 93.6682C53.3445 97.5934 59.3877 99.7125 65.6076 99.6601L65.6671 106.455C63.2792 106.477 60.8958 106.244 58.5576 105.759Z"
      fill="#07004D" />
    <path
      d="M79.971 104.96L75.741 82.5362H46.3602V37.3481H57.4024V71.494H84.8975L90.8263 102.913L79.971 104.96Z"
      fill="#0FBC8F" />
    <path
      d="M91.8795 63.994H64.6987V28.2512H91.8795V63.994ZM71.4939 57.1988H85.0843V35.0464H71.4939V57.1988Z"
      fill="#0FBC8F" />
  </g>
  <defs>
    <clipPath id="clip0_69_1083">
      <rect width="126" height="126" fill="white" />
    </clipPath>
  </defs>
</svg>