<svg xmlns="http://www.w3.org/2000/svg" width="125" height="128" viewBox="0 0 125 128" fill="none">
  <g clip-path="url(#clip0_69_1090)">
    <path
      d="M121.476 65.7292C121.472 75.5856 118.979 85.2825 114.226 93.9266C109.473 102.571 102.614 109.884 94.2799 115.192C85.9458 120.501 76.405 123.634 66.5365 124.303C56.6681 124.972 46.7893 123.156 37.8104 119.021C28.8315 114.886 21.0413 108.566 15.1574 100.643C9.27356 92.7203 5.4853 83.4492 4.14168 73.6842C2.79805 63.9191 3.94227 53.9742 7.46891 44.7655C10.9956 35.5569 16.7912 27.3807 24.3219 20.9904L62.5 50.0329L95.9971 17.4077C103.858 22.7996 110.285 30.0157 114.723 38.4339C119.162 46.8521 121.48 56.2197 121.476 65.7292V65.7292Z"
      stroke="#07004D" stroke-width="8" stroke-miterlimit="10" />
    <path d="M49.1154 82.4895H32.6072V106.761H49.1154V82.4895Z" fill="#0FBC8F" />
    <path d="M71.7197 88.0586H55.2115V106.761H71.7197V88.0586Z" fill="#0FBC8F" />
    <path d="M94.324 76.5303H77.8157V106.761H94.324V76.5303Z" fill="#0FBC8F" />
    <path
      d="M86.0654 66.9973C90.6216 66.9973 94.3151 63.3168 94.3151 58.7767C94.3151 54.2366 90.6216 50.5562 86.0654 50.5562C81.5092 50.5562 77.8157 54.2366 77.8157 58.7767C77.8157 63.3168 81.5092 66.9973 86.0654 66.9973Z"
      fill="#07004D" />
    <path
      d="M64.2799 79.6431C68.8361 79.6431 72.5296 75.9626 72.5296 71.4225C72.5296 66.8824 68.8361 63.2019 64.2799 63.2019C59.7237 63.2019 56.0302 66.8824 56.0302 71.4225C56.0302 75.9626 59.7237 79.6431 64.2799 79.6431Z"
      fill="#07004D" />
    <path
      d="M35.9889 66.9973C40.5451 66.9973 44.2386 63.3168 44.2386 58.7767C44.2386 54.2366 40.5451 50.5562 35.9889 50.5562C31.4328 50.5562 27.7393 54.2366 27.7393 58.7767C27.7393 63.3168 31.4328 66.9973 35.9889 66.9973Z"
      fill="#07004D" />
    <path d="M85.7628 56.8613L64.0129 72.5487" stroke="#07004D" stroke-width="4"
      stroke-miterlimit="10" />
    <path d="M63.4612 72.1495L38.6854 61.845" stroke="#07004D" stroke-width="4"
      stroke-miterlimit="10" />
    <path
      d="M85.309 10.8188L62.0106 33.5208L35.4639 13.2841C42.3326 7.45199 50.9428 4.04491 59.9554 3.59266C68.9681 3.14041 77.8782 5.66833 85.3001 10.7833L85.309 10.8188Z"
      stroke="#0FBC8F" stroke-width="8" stroke-miterlimit="10" />
  </g>
  <defs>
    <clipPath id="clip0_69_1090">
      <rect width="125" height="128" fill="white" />
    </clipPath>
  </defs>
</svg>