<svg xmlns="http://www.w3.org/2000/svg" width="144" height="130" viewBox="0 0 144 130" fill="none">
  <g clip-path="url(#clip0_64_53)">
    <path
      d="M73.2838 120.765C105.735 120.765 132.042 94.541 132.042 62.1916C132.042 29.8423 105.735 3.61792 73.2838 3.61792C40.8328 3.61792 14.5261 29.8423 14.5261 62.1916C14.5261 94.541 40.8328 120.765 73.2838 120.765Z"
      stroke="#07004D" stroke-width="8" stroke-miterlimit="10" />
    <path d="M14.6622 32.968L0 58.2752H29.3154L14.6622 32.968Z" fill="#0FBC8F" />
    <path
      d="M130.318 63.1686C137.874 63.1686 144 57.062 144 49.5291C144 41.9962 137.874 35.8896 130.318 35.8896C122.761 35.8896 116.635 41.9962 116.635 49.5291C116.635 57.062 122.761 63.1686 130.318 63.1686Z"
      fill="#0FBC8F" />
    <path d="M86.6667 104.684H61.271V130H86.6667V104.684Z" fill="#0FBC8F" />
    <path d="M94.0251 69.0928V87.0466H52.6878V69.2284L73.2476 79.7203L94.0251 69.0928Z"
      fill="#0FBC8F" />
    <path d="M104.604 51.4375V79.7385" stroke="#07004D" stroke-width="8" stroke-miterlimit="10" />
    <path d="M112.788 53.8705L73.2838 73.6513L33.7884 53.8705L73.2838 34.0806L112.788 53.8705Z"
      fill="#07004D" />
  </g>
  <defs>
    <clipPath id="clip0_64_53">
      <rect width="144" height="130" fill="white" />
    </clipPath>
  </defs>
</svg>