<svg xmlns="http://www.w3.org/2000/svg" width="122" height="133" viewBox="0 0 122 133" fill="none">
  <g clip-path="url(#clip0_69_1102)">
    <path
      d="M58.5645 10.0715C70.6483 9.47249 82.6112 12.7018 92.7257 19.2932C102.84 25.8845 110.583 35.4967 114.835 46.7418C119.088 57.9869 119.631 70.2829 116.385 81.8541C113.139 93.4254 106.273 103.673 96.7782 111.117"
      stroke="#07004D" stroke-width="8" stroke-miterlimit="10" stroke-linecap="round" />
    <path
      d="M69.1035 122.989C56.175 124.923 42.9696 122.391 31.6963 115.817C20.4231 109.242 11.7657 99.0238 7.17231 86.8711C2.57897 74.7184 2.32827 61.3683 6.46215 49.0541C10.596 36.7399 18.8638 26.2084 29.8824 19.2212"
      stroke="#07004D" stroke-width="8" stroke-miterlimit="10" stroke-linecap="round" />
    <path
      d="M78.5475 64.7171C78.5596 68.7183 77.1391 72.5936 74.5395 75.6512C71.9399 78.7088 68.3303 80.7498 64.3552 81.4097C60.3801 82.0697 56.2981 81.3057 52.8379 79.2541C49.3777 77.2026 46.7644 73.997 45.4646 70.2096C44.1648 66.4222 44.263 62.2994 45.7417 58.5772C47.2205 54.8551 49.9835 51.7757 53.5375 49.8889C57.0916 48.0021 61.2054 47.4305 65.1446 48.2763C69.0839 49.1221 72.5921 51.3302 75.0432 54.5064L62.5769 66.9175L56.8563 61.2382L54.1054 63.9691L62.5857 72.3882L65.3365 69.6659L77.1195 57.9419C78.0662 60.0767 78.5526 62.3845 78.5475 64.7171Z"
      fill="#07004D" />
    <path
      d="M90.9875 57.4807C90.7668 53.9458 90.3633 50.4246 89.7785 46.9308C88.9567 42.4449 88.6131 37.8855 88.7536 33.3281L88.8412 31.1538H34.3766L34.2627 33.1716C34.0437 39.2597 33.6232 42.9648 33.0888 47.6092C32.8435 49.7575 32.5719 52.1753 32.2915 55.0976C31.4768 63.5428 30.627 72.2662 34.7971 80.7896C39.3526 90.1219 46.9831 97.9756 54.3682 105.56C56.0415 107.299 57.6097 108.882 59.1603 110.526L60.6583 112.126L64.0049 108.708C65.757 106.916 67.5091 105.073 69.2612 103.298C72.1698 100.272 75.1746 97.132 78.2146 94.1488C80.4571 92.0145 82.5499 89.7305 84.4784 87.3127C84.6653 87.0749 84.8405 86.8401 85.004 86.6082C91.5044 77.7803 91.5044 66.9434 90.9875 57.4807ZM81.5699 84.1381L81.1056 84.773C79.2903 87.0384 77.3235 89.1799 75.2184 91.183C72.1347 94.2097 69.086 97.3668 66.1775 100.42C64.4867 102.159 62.7258 104.02 60.9912 105.795L60.7197 106.073C59.6158 104.925 58.4945 103.777 57.3994 102.655C50.277 95.2968 42.8831 87.6866 38.643 78.9893C34.9635 71.5009 35.752 63.334 36.5141 55.5064C36.7857 52.6189 37.0661 50.2184 37.3114 48.0963C37.7932 43.878 38.1874 40.46 38.424 35.3459H84.4959C84.5183 39.4464 84.8934 43.5374 85.6173 47.5744C86.1959 50.9289 86.5994 54.3109 86.8262 57.7068C87.2818 66.8565 87.2905 76.4236 81.5699 84.1381Z"
      fill="#0FBC8F" stroke="#0FBC8F" stroke-width="4" stroke-miterlimit="10" />
    <path
      d="M54.7099 18.2645C59.3063 18.2645 63.0325 14.5652 63.0325 10.002C63.0325 5.43875 59.3063 1.7395 54.7099 1.7395C50.1135 1.7395 46.3873 5.43875 46.3873 10.002C46.3873 14.5652 50.1135 18.2645 54.7099 18.2645Z"
      fill="#0FBC8F" stroke="#0FBC8F" stroke-width="4" stroke-miterlimit="10" />
    <path
      d="M68.6743 131.261C73.2707 131.261 76.9969 127.561 76.9969 122.998C76.9969 118.435 73.2707 114.736 68.6743 114.736C64.0779 114.736 60.3517 118.435 60.3517 122.998C60.3517 127.561 64.0779 131.261 68.6743 131.261Z"
      fill="#0FBC8F" stroke="#0FBC8F" stroke-width="4" stroke-miterlimit="10" />
  </g>
  <defs>
    <clipPath id="clip0_69_1102">
      <rect width="122" height="133" fill="white" />
    </clipPath>
  </defs>
</svg>