<svg xmlns="http://www.w3.org/2000/svg" width="134" height="134" viewBox="0 0 134 134" fill="none">
  <g clip-path="url(#clip0_69_1110)">
    <path
      d="M93.9334 33.3565C87.4457 14.7737 60.5678 7.13666 46.9991 22.7351C43.4945 26.9297 41.2143 32.0095 40.4094 37.416L42.4577 60.5124C44.8052 67.7606 48.7158 74.4048 53.9132 79.9756C62.0507 88.5395 74.6741 86.7136 82.5335 78.7152C87.1676 74.0811 90.5413 67.5933 92.7286 60.7904C92.2084 60.7142 91.708 60.538 91.2549 60.2714L92.8305 59.706L94.99 37.3418C94.7448 35.9873 94.3915 34.6546 93.9334 33.3565ZM85.9442 62.1436C85.8079 62.7721 85.6314 63.3912 85.4159 63.9972C83.0803 70.5684 79.4008 77.1303 74.0067 79.7532C68.316 82.5337 63.6356 82.5337 58.7049 78.5669C54.0458 74.9672 50.7166 69.9197 49.242 64.2197C48.236 60.3205 47.7315 56.309 47.7406 52.2822C47.7406 49.1866 47.8333 46.0817 47.8796 43.014C47.8796 40.9471 47.2679 36.693 48.9733 35.1082C49.965 34.1813 53.1718 35.8033 54.4323 36.0999C59.4067 37.2198 64.5212 37.5853 69.6043 37.1842C70.8833 37.1008 83.8867 35.7384 83.8867 34.7467C84.8135 42.0871 85.9257 49.4925 86.2686 56.8792L85.9442 62.1436Z"
      fill="#0FBC8F" />
    <path
      d="M42.4577 60.5123C42.0239 60.7054 41.5597 60.8214 41.0861 60.8552C37.2953 61.1425 33.8105 56.1191 33.3193 49.6314C32.8281 43.1436 35.488 37.629 39.2973 37.3417C39.6697 37.3149 40.0439 37.3399 40.4095 37.4159L42.4577 60.5123Z"
      fill="#07004D" />
    <path
      d="M101.014 49.8261C100.319 56.3138 96.6862 61.2075 92.8955 60.8089H92.7101L92.812 59.7246L94.9901 37.3418H95.4257C99.2071 37.7867 101.719 43.3661 101.014 49.8261Z"
      fill="#07004D" />
    <path
      d="M91.2365 60.2528L93.0901 59.5947C92.9696 59.9933 92.8491 60.3825 92.7194 60.7811C92.1966 60.6985 91.6937 60.5194 91.2365 60.2528Z"
      fill="#0FBC8F" />
    <path
      d="M93.2847 54.8772V60.1879L72.1161 67.0649L71.9214 68.4551L62.301 68.6312V60.8645L71.5785 60.7533L71.6619 62.4864L93.2847 54.8772Z"
      fill="#07004D" />
    <path
      d="M91.2365 106.714V125.483C83.4187 128.716 75.0332 130.353 66.5734 130.297C58.1136 130.241 49.7504 128.494 41.9758 125.158V106.714H91.2365Z"
      fill="#07004D" />
    <path
      d="M104.898 112.053V117.688C100.687 120.846 96.0974 123.464 91.2365 125.483V106.714H41.9758V125.158C37.3931 123.191 33.0619 120.683 29.0745 117.688V112.053C29.0739 106.026 30.7659 100.12 33.9579 95.0072C37.1499 89.8948 41.7135 85.7815 47.129 83.136C51.068 88.9472 58.603 92.8769 67.2503 92.8769C75.8975 92.8769 83.2565 89.0398 87.2326 83.3399C92.5443 86.0242 97.0075 90.129 100.126 95.1979C103.245 100.267 104.896 106.101 104.898 112.053Z"
      fill="#0FBC8F" />
    <path
      d="M130.293 67.0001C130.293 79.5182 126.581 91.7552 119.626 102.164C112.671 112.572 102.786 120.684 91.2211 125.475C79.6559 130.265 66.9298 131.519 54.6522 129.077C42.3746 126.635 31.097 120.606 22.2453 111.755C13.3937 102.903 7.36562 91.6255 4.92346 79.3479C2.48129 67.0703 3.7347 54.3443 8.52517 42.779C13.3157 31.2138 21.428 21.3288 31.8365 14.3742C42.2449 7.41946 54.4819 3.70741 67 3.70741C75.3165 3.69031 83.5546 5.31575 91.2413 8.49045C98.9281 11.6651 105.912 16.3266 111.793 22.2073C117.674 28.088 122.335 35.0721 125.51 42.7588C128.684 50.4456 130.31 58.6836 130.293 67.0001Z"
      stroke="#07004D" stroke-width="8" stroke-miterlimit="10" />
  </g>
  <defs>
    <clipPath id="clip0_69_1110">
      <rect width="134" height="134" fill="white" />
    </clipPath>
  </defs>
</svg>